{
    "asset" : {
        "generator" : "Khronos glTF Blender I/O v1.3.48",
        "version" : "2.0"
    },
    "scene" : 0,
    "scenes" : [
        {
            "name" : "Scene",
            "nodes" : [
                0,
                1,
                2
            ]
        }
    ],
    "nodes" : [
        {
            "name" : "Light",
            "rotation" : [
                0.16907577216625214,
                0.7558802962303162,
                -0.27217137813568115,
                0.570947527885437
            ],
            "translation" : [
                4.076245307922363,
                5.903861999511719,
                -1.0054539442062378
            ]
        },
        {
            "name" : "Camera",
            "rotation" : [
                0.483536034822464,
                0.33687159419059753,
                -0.20870360732078552,
                0.7804827094078064
            ],
            "translation" : [
                7.358891487121582,
                4.958309173583984,
                6.925790786743164
            ]
        },
        {
            "mesh" : 0,
            "name" : "Circle",
            "rotation" : [
                0.7071068286895752,
                0,
                0,
                0.7071068286895752
            ]
        }
    ],
    "materials" : [
        {
            "doubleSided" : true,
            "name" : "Material.001",
            "pbrMetallicRoughness" : {}
        },
        {
            "doubleSided" : true,
            "name" : "Material.002",
            "pbrMetallicRoughness" : {}
        },
        {
            "doubleSided" : true,
            "name" : "Material.003",
            "pbrMetallicRoughness" : {}
        }
    ],
    "meshes" : [
        {
            "name" : "Circle",
            "primitives" : [
                {
                    "attributes" : {
                        "POSITION" : 0,
                        "NORMAL" : 1,
                        "TEXCOORD_0" : 2
                    },
                    "indices" : 3,
                    "material" : 0
                },
                {
                    "attributes" : {
                        "POSITION" : 4,
                        "NORMAL" : 5,
                        "TEXCOORD_0" : 6
                    },
                    "indices" : 7,
                    "material" : 1
                },
                {
                    "attributes" : {
                        "POSITION" : 8,
                        "NORMAL" : 9,
                        "TEXCOORD_0" : 10
                    },
                    "indices" : 11,
                    "material" : 2
                }
            ]
        }
    ],
    "accessors" : [
        {
            "bufferView" : 0,
            "componentType" : 5126,
            "count" : 744,
            "max" : [
                1.1692578792572021,
                1.1480536460876465,
                0.8949922919273376
            ],
            "min" : [
                -1.1507388353347778,
                -1.1244776248931885,
                -1.1632726192474365
            ],
            "type" : "VEC3"
        },
        {
            "bufferView" : 1,
            "componentType" : 5126,
            "count" : 744,
            "type" : "VEC3"
        },
        {
            "bufferView" : 2,
            "componentType" : 5126,
            "count" : 744,
            "type" : "VEC2"
        },
        {
            "bufferView" : 3,
            "componentType" : 5123,
            "count" : 1080,
            "type" : "SCALAR"
        },
        {
            "bufferView" : 4,
            "componentType" : 5126,
            "count" : 96,
            "max" : [
                0.0762779712677002,
                0.07627779990434647,
                -0.7572022676467896
            ],
            "min" : [
                -0.0762777328491211,
                -0.07627787441015244,
                -1.4358279705047607
            ],
            "type" : "VEC3"
        },
        {
            "bufferView" : 5,
            "componentType" : 5126,
            "count" : 96,
            "type" : "VEC3"
        },
        {
            "bufferView" : 6,
            "componentType" : 5126,
            "count" : 96,
            "type" : "VEC2"
        },
        {
            "bufferView" : 7,
            "componentType" : 5123,
            "count" : 180,
            "type" : "SCALAR"
        },
        {
            "bufferView" : 8,
            "componentType" : 5126,
            "count" : 63,
            "max" : [
                -0.047830041497945786,
                0.3568655848503113,
                -1.318266749382019
            ],
            "min" : [
                -0.8381566405296326,
                -0.057228490710258484,
                -1.397213101387024
            ],
            "type" : "VEC3"
        },
        {
            "bufferView" : 9,
            "componentType" : 5126,
            "count" : 63,
            "type" : "VEC3"
        },
        {
            "bufferView" : 10,
            "componentType" : 5126,
            "count" : 63,
            "type" : "VEC2"
        },
        {
            "bufferView" : 11,
            "componentType" : 5123,
            "count" : 123,
            "type" : "SCALAR"
        }
    ],
    "bufferViews" : [
        {
            "buffer" : 0,
            "byteLength" : 8928,
            "byteOffset" : 0
        },
        {
            "buffer" : 0,
            "byteLength" : 8928,
            "byteOffset" : 8928
        },
        {
            "buffer" : 0,
            "byteLength" : 5952,
            "byteOffset" : 17856
        },
        {
            "buffer" : 0,
            "byteLength" : 2160,
            "byteOffset" : 23808
        },
        {
            "buffer" : 0,
            "byteLength" : 1152,
            "byteOffset" : 25968
        },
        {
            "buffer" : 0,
            "byteLength" : 1152,
            "byteOffset" : 27120
        },
        {
            "buffer" : 0,
            "byteLength" : 768,
            "byteOffset" : 28272
        },
        {
            "buffer" : 0,
            "byteLength" : 360,
            "byteOffset" : 29040
        },
        {
            "buffer" : 0,
            "byteLength" : 756,
            "byteOffset" : 29400
        },
        {
            "buffer" : 0,
            "byteLength" : 756,
            "byteOffset" : 30156
        },
        {
            "buffer" : 0,
            "byteLength" : 504,
            "byteOffset" : 30912
        },
        {
            "buffer" : 0,
            "byteLength" : 246,
            "byteOffset" : 31416
        }
    ],
    "buffers" : [
        {
            "byteLength" : 31664,
            "uri" : "data:application/octet-stream;base64,"
        }
    ]
}
