{
    "asset" : {
        "generator" : "Khronos glTF Blender I/O v1.1.46",
        "version" : "2.0"
    },
    "scene" : 0,
    "scenes" : [
        {
            "name" : "Scene",
            "nodes" : [
                0,
                1,
                2,
                3,
                4,
                5,
                6
            ]
        }
    ],
    "nodes" : [
        {
            "name" : "Light",
            "rotation" : [
                0.16907575726509094,
                0.7558803558349609,
                -0.27217137813568115,
                0.570947527885437
            ],
            "translation" : [
                4.076245307922363,
                5.903861999511719,
                -1.0054539442062378
            ]
        },
        {
            "name" : "Camera",
            "rotation" : [
                0.483536034822464,
                0.33687159419059753,
                -0.20870360732078552,
                0.7804827094078064
            ],
            "translation" : [
                7.358891487121582,
                4.958309173583984,
                6.925790786743164
            ]
        },
        {
            "name" : "Empty",
            "rotation" : [
                0.6997637152671814,
                -0.10164077579975128,
                -0.10164078325033188,
                0.6997635960578918
            ],
            "translation" : [
                0.0754183977842331,
                0.10573433339595795,
                0
            ]
        },
        {
            "name" : "Empty.001",
            "rotation" : [
                0.36749738454818726,
                -0.36749738454818726,
                0.6041073203086853,
                0.6041073203086853
            ],
            "scale" : [
                1.1498514413833618,
                1.1498514413833618,
                1.1498514413833618
            ],
            "translation" : [
                -0.0016745132161304355,
                0.2641986012458801,
                0.11561569571495056
            ]
        },
        {
            "mesh" : 0,
            "name" : "face",
            "scale" : [
                1.7759798765182495,
                1.4301857948303223,
                1.644972324371338
            ],
            "translation" : [
                0,
                -0.5657446384429932,
                0
            ]
        },
        {
            "mesh" : 1,
            "name" : "ear"
        },
        {
            "mesh" : 2,
            "name" : "glass",
            "rotation" : [
                0.7071067690849304,
                0,
                0,
                0.7071067690849304
            ],
            "scale" : [
                1.7214051485061646,
                2.0916686058044434,
                0.5678790807723999
            ],
            "translation" : [
                0,
                -0.5488796234130859,
                1.6664226055145264
            ]
        }
    ],
    "materials" : [
        {
            "doubleSided" : true,
            "emissiveFactor" : [
                0,
                0,
                0
            ],
            "name" : "face_mat",
            "pbrMetallicRoughness" : {
                "baseColorTexture" : {
                    "index" : 0,
                    "texCoord" : 0
                },
                "metallicFactor" : 0,
                "roughnessFactor" : 0.5
            }
        },
        {
            "doubleSided" : true,
            "emissiveFactor" : [
                0,
                0,
                0
            ],
            "name" : "ear_mat",
            "pbrMetallicRoughness" : {
                "baseColorTexture" : {
                    "index" : 1,
                    "texCoord" : 0
                },
                "metallicFactor" : 0,
                "roughnessFactor" : 0.5
            }
        },
        {
            "doubleSided" : true,
            "emissiveFactor" : [
                0,
                0,
                0
            ],
            "name" : "glass",
            "pbrMetallicRoughness" : {
                "baseColorFactor" : [
                    0.04445481300354004,
                    0.03891347721219063,
                    0.04226839914917946,
                    1
                ],
                "metallicFactor" : 0,
                "roughnessFactor" : 0.5
            }
        }
    ],
    "meshes" : [
        {
            "name" : "Sphere",
            "primitives" : [
                {
                    "attributes" : {
                        "POSITION" : 0,
                        "NORMAL" : 1,
                        "TEXCOORD_0" : 2
                    },
                    "indices" : 3,
                    "material" : 0
                }
            ]
        },
        {
            "name" : "Cone.001",
            "primitives" : [
                {
                    "attributes" : {
                        "POSITION" : 4,
                        "NORMAL" : 5,
                        "TEXCOORD_0" : 6
                    },
                    "indices" : 7,
                    "material" : 1
                }
            ]
        },
        {
            "name" : "Plane.001",
            "primitives" : [
                {
                    "attributes" : {
                        "POSITION" : 8,
                        "NORMAL" : 9,
                        "TEXCOORD_0" : 10
                    },
                    "indices" : 11,
                    "material" : 2
                }
            ]
        }
    ],
    "textures" : [
        {
            "source" : 0
        },
        {
            "source" : 1
        }
    ],
    "images" : [
        {
            "bufferView" : 4,
            "mimeType" : "image/png",
            "name" : "uv"
        },
        {
            "bufferView" : 9,
            "mimeType" : "image/png",
            "name" : "uv2"
        }
    ],
    "accessors" : [
        {
            "bufferView" : 0,
            "componentType" : 5126,
            "count" : 424,
            "max" : [
                0.9680380821228027,
                1.0000940561294556,
                0.9956154227256775
            ],
            "min" : [
                -0.9680384397506714,
                -0.9881566166877747,
                -0.9601631760597229
            ],
            "type" : "VEC3"
        },
        {
            "bufferView" : 1,
            "componentType" : 5126,
            "count" : 424,
            "type" : "VEC3"
        },
        {
            "bufferView" : 2,
            "componentType" : 5126,
            "count" : 424,
            "type" : "VEC2"
        },
        {
            "bufferView" : 3,
            "componentType" : 5123,
            "count" : 1800,
            "type" : "SCALAR"
        },
        {
            "bufferView" : 5,
            "componentType" : 5126,
            "count" : 278,
            "max" : [
                1.5944502353668213,
                2.419616222381592,
                0.33978384733200073
            ],
            "min" : [
                -1.5944502353668213,
                -0.26863980293273926,
                -0.8658974170684814
            ],
            "type" : "VEC3"
        },
        {
            "bufferView" : 6,
            "componentType" : 5126,
            "count" : 278,
            "type" : "VEC3"
        },
        {
            "bufferView" : 7,
            "componentType" : 5126,
            "count" : 278,
            "type" : "VEC2"
        },
        {
            "bufferView" : 8,
            "componentType" : 5123,
            "count" : 1308,
            "type" : "SCALAR"
        },
        {
            "bufferView" : 10,
            "componentType" : 5126,
            "count" : 236,
            "max" : [
                0.9377850294113159,
                0.03670254349708557,
                0.9430503249168396
            ],
            "min" : [
                -0.9377850294113159,
                -0.4530472159385681,
                -0.9759648442268372
            ],
            "type" : "VEC3"
        },
        {
            "bufferView" : 11,
            "componentType" : 5126,
            "count" : 236,
            "type" : "VEC3"
        },
        {
            "bufferView" : 12,
            "componentType" : 5126,
            "count" : 236,
            "type" : "VEC2"
        },
        {
            "bufferView" : 13,
            "componentType" : 5123,
            "count" : 1428,
            "type" : "SCALAR"
        }
    ],
    "bufferViews" : [
        {
            "buffer" : 0,
            "byteLength" : 5088,
            "byteOffset" : 0
        },
        {
            "buffer" : 0,
            "byteLength" : 5088,
            "byteOffset" : 5088
        },
        {
            "buffer" : 0,
            "byteLength" : 3392,
            "byteOffset" : 10176
        },
        {
            "buffer" : 0,
            "byteLength" : 3600,
            "byteOffset" : 13568
        },
        {
            "buffer" : 0,
            "byteLength" : 30469,
            "byteOffset" : 17168
        },
        {
            "buffer" : 0,
            "byteLength" : 3336,
            "byteOffset" : 47640
        },
        {
            "buffer" : 0,
            "byteLength" : 3336,
            "byteOffset" : 50976
        },
        {
            "buffer" : 0,
            "byteLength" : 2224,
            "byteOffset" : 54312
        },
        {
            "buffer" : 0,
            "byteLength" : 2616,
            "byteOffset" : 56536
        },
        {
            "buffer" : 0,
            "byteLength" : 12406,
            "byteOffset" : 59152
        },
        {
            "buffer" : 0,
            "byteLength" : 2832,
            "byteOffset" : 71560
        },
        {
            "buffer" : 0,
            "byteLength" : 2832,
            "byteOffset" : 74392
        },
        {
            "buffer" : 0,
            "byteLength" : 1888,
            "byteOffset" : 77224
        },
        {
            "buffer" : 0,
            "byteLength" : 2856,
            "byteOffset" : 79112
        }
    ],
    "buffers" : [
        {
            "byteLength" : 81968,
            "uri" : "data:application/octet-stream;base64,"
        }
    ]
}
