{
    "asset" : {
        "generator" : "Khronos glTF Blender I/O v1.3.48",
        "version" : "2.0"
    },
    "scene" : 0,
    "scenes" : [
        {
            "name" : "Scene",
            "nodes" : [
                0
            ]
        }
    ],
    "nodes" : [
        {
            "mesh" : 0,
            "name" : "Sphere"
        }
    ],
    "materials" : [
        {
            "doubleSided" : true,
            "emissiveFactor" : [
                0,
                0,
                0
            ],
            "name" : "Material.001",
            "pbrMetallicRoughness" : {
                "baseColorFactor" : [
                    0.8006561994552612,
                    0.8006561994552612,
                    0.8006561994552612,
                    1
                ],
                "metallicFactor" : 0.7021276354789734,
                "roughnessFactor" : 0.5
            }
        }
    ],
    "meshes" : [
        {
            "name" : "Sphere",
            "primitives" : [
                {
                    "attributes" : {
                        "POSITION" : 0,
                        "NORMAL" : 1,
                        "TEXCOORD_0" : 2
                    },
                    "indices" : 3,
                    "material" : 0
                }
            ]
        }
    ],
    "accessors" : [
        {
            "bufferView" : 0,
            "componentType" : 5126,
            "count" : 512,
            "max" : [
                0.13445383310317993,
                0.1506780982017517,
                0.36451196670532227
            ],
            "min" : [
                -0.13445377349853516,
                -0.11822938919067383,
                -0.26899123191833496
            ],
            "type" : "VEC3"
        },
        {
            "bufferView" : 1,
            "componentType" : 5126,
            "count" : 512,
            "type" : "VEC3"
        },
        {
            "bufferView" : 2,
            "componentType" : 5126,
            "count" : 512,
            "type" : "VEC2"
        },
        {
            "bufferView" : 3,
            "componentType" : 5123,
            "count" : 762,
            "type" : "SCALAR"
        }
    ],
    "bufferViews" : [
        {
            "buffer" : 0,
            "byteLength" : 6144,
            "byteOffset" : 0
        },
        {
            "buffer" : 0,
            "byteLength" : 6144,
            "byteOffset" : 6144
        },
        {
            "buffer" : 0,
            "byteLength" : 4096,
            "byteOffset" : 12288
        },
        {
            "buffer" : 0,
            "byteLength" : 1524,
            "byteOffset" : 16384
        }
    ],
    "buffers" : [
        {
            "byteLength" : 17908,
            "uri" : "data:application/octet-stream;base64,"
        }
    ]
}
